<?xml version="1.0" encoding="iso-8859-1"?>
<!DOCTYPE svg PUBLIC "-//W3C//DTD SVG 1.1//EN" "http://www.w3.org/Graphics/SVG/1.1/DTD/svg11.dtd">
<svg version="1.1" id="post" xmlns="http://www.w3.org/2000/svg" xmlns:xlink="http://www.w3.org/1999/xlink" x="0px" y="0px"
	 width="60px" height="60px" viewBox="0 0 60 60" style="enable-background:new 0 0 60 60;" xml:space="preserve">
<path d="M54.748,28.71c1.945,1.945,1.945,5.126,0.001,7.071s-5.126,1.945-7.071,0L30,18.104L12.322,35.781 c-1.945,1.945-5.127,1.945-7.071,0s-1.944-5.126,0.001-7.071L26.463,7.499c0,0,0-0.001,0.002-0.002 C27.437,6.524,28.719,6.039,30,6.039s2.563,0.486,3.535,1.458c0.002,0.001,0.002,0.002,0.002,0.002L54.748,28.71z M50,44H10 c-2.75,0-5,2.25-5,5s2.25,5,5,5h40c2.75,0,5-2.25,5-5S52.75,44,50,44z"/>
</svg>
