<?xml version="1.0" encoding="iso-8859-1"?>
<!DOCTYPE svg PUBLIC "-//W3C//DTD SVG 1.1//EN" "http://www.w3.org/Graphics/SVG/1.1/DTD/svg11.dtd">
<svg version="1.1" id="gate" xmlns="http://www.w3.org/2000/svg" xmlns:xlink="http://www.w3.org/1999/xlink" x="0px" y="0px"
	 width="60px" height="60px" viewBox="0 0 60 60" style="enable-background:new 0 0 60 60;" xml:space="preserve">
<path d="M54.749,52.503L54.749,52.503c-1.945,1.945-5.127,1.945-7.071,0L30,34.826L12.322,52.503c-1.945,1.945-5.126,1.945-7.071,0 c-1.944-1.945-1.944-5.126,0-7.071l21.211-21.211c0.001,0,0.001-0.001,0.002-0.002c0.973-0.972,2.254-1.458,3.535-1.458 s2.562,0.486,3.535,1.458c0.001,0.001,0.001,0.002,0.002,0.002l21.212,21.211C56.693,47.376,56.693,50.558,54.749,52.503z M10,16h40 c2.75,0,5-2.25,5-5s-2.25-5-5-5H10c-2.75,0-5,2.25-5,5S7.25,16,10,16z"/>
</svg>
