<?xml version="1.0" encoding="iso-8859-1"?>
<!DOCTYPE svg PUBLIC "-//W3C//DTD SVG 1.1//EN" "http://www.w3.org/Graphics/SVG/1.1/DTD/svg11.dtd">
<svg version="1.1" id="approved_1_" xmlns="http://www.w3.org/2000/svg" xmlns:xlink="http://www.w3.org/1999/xlink" x="0px"
	 y="0px" width="60px" height="60px" viewBox="0 0 60 60" style="enable-background:new 0 0 60 60;" xml:space="preserve">
	<path style="fill:#39B54A;" d="M30,0C13.432,0,0,13.432,0,30s13.432,30,30,30s30-13.432,30-30S46.568,0,30,0z M30,10 c11.045,0,20,8.954,20,20c0,1.635-0.218,3.215-0.587,4.735L33.537,18.86c-0.001-0.001-0.001-0.002-0.002-0.003 c-0.973-0.972-2.254-1.458-3.535-1.458s-2.562,0.486-3.535,1.458c-0.001,0.001-0.001,0.002-0.002,0.003L10.587,34.735 C10.217,33.215,10,31.635,10,30C10,18.954,18.953,10,30,10z M30,50c-5.66,0-10.759-2.36-14.397-6.138L30,29.465l14.397,14.396 C40.758,47.64,35.659,50,30,50z"/>
</svg>
